<svg xmlns="http://www.w3.org/2000/svg" viewBox="0 0 13178 5248" role="img" aria-label="Next Billion Children"><title>Next Billion Children</title><path d="M0.0 0.0H5248.0V2624.0A2624.0 2624.0 0 0 1 2624.0 5248.0H0.0Z" fill="#4B5BFF"/><g fill="#0B0C1A"><path d="M6128.0 1600V0H6562.0L6682.0 510L6792.0 1336H6844.0L6788.0 686L6764.0 0H7054.0V1600H6598.0L6478.0 1076L6396.0 262H6340.0L6392.0 986L6418.0 1600Z"/><path d="M7224.0 1600V0H7916.0V264H7524.0V654H7896.0V918H7524.0V1336H7916.0V1600Z"/><path d="M7993.0 1600 8243.0 768 7999.0 0H8293.0L8397.0 374L8423.0 648H8463.0L8489.0 374L8589.0 0H8883.0L8651.0 778L8889.0 1600H8595.0L8489.0 1206L8463.0 912H8423.0L8397.0 1206L8287.0 1600Z"/><path d="M9191.0 1600V264H8934.0V0H9748.0V264H9491.0V1600Z"/><path d="M6128.0 3424V1824H6498.0Q6722.0 1824 6825.0 1914.5Q6928.0 2005 6928.0 2214Q6928.0 2242 6928.0 2268.0Q6928.0 2294 6926.0 2320Q6919.0 2429 6877.0 2493.5Q6835.0 2558 6746.0 2588V2636Q6838.0 2666 6881.0 2731.5Q6924.0 2797 6928.0 2910Q6930.0 2943 6930.0 2971.0Q6930.0 2999 6928.0 3034Q6919.0 3242 6820.5 3333.0Q6722.0 3424 6498.0 3424ZM6428.0 3160H6498.0Q6561.0 3160 6594.5 3126.5Q6628.0 3093 6628.0 3030Q6628.0 3003 6628.0 2977.0Q6628.0 2951 6628.0 2924Q6628.0 2825 6597.5 2783.5Q6567.0 2742 6498.0 2742H6428.0ZM6428.0 2478H6498.0Q6561.0 2478 6594.5 2434.5Q6628.0 2391 6628.0 2312Q6628.0 2283 6628.0 2254.5Q6628.0 2226 6628.0 2198Q6628.0 2145 6594.5 2116.5Q6561.0 2088 6498.0 2088H6428.0Z"/><path d="M7083.0 3424V1824H7383.0V3424Z"/><path d="M7553.0 3424V1824H7853.0V3160H8247.0V3424Z"/><path d="M8367.0 3424V1824H8667.0V3160H9061.0V3424Z"/><path d="M9181.0 3424V1824H9481.0V3424Z"/><path d="M10067.0 3444Q9847.0 3444 9748.5 3351.0Q9650.0 3258 9645.0 3042Q9643.0 2944 9642.0 2838.0Q9641.0 2732 9641.0 2623.0Q9641.0 2514 9642.0 2408.0Q9643.0 2302 9645.0 2204Q9650.0 1989 9748.5 1896.5Q9847.0 1804 10067.0 1804Q10288.0 1804 10384.0 1896.5Q10480.0 1989 10487.0 2204Q10491.0 2304 10493.0 2410.0Q10495.0 2516 10495.0 2624.5Q10495.0 2733 10493.0 2838.5Q10491.0 2944 10487.0 3042Q10480.0 3258 10384.0 3351.0Q10288.0 3444 10067.0 3444ZM10067.0 3200Q10126.0 3200 10156.0 3173.5Q10186.0 3147 10187.0 3098Q10192.0 2996 10194.0 2874.0Q10196.0 2752 10196.0 2623.0Q10196.0 2494 10194.0 2372.0Q10192.0 2250 10187.0 2148Q10186.0 2100 10155.0 2074.0Q10124.0 2048 10067.0 2048Q10010.0 2048 9978.5 2074.0Q9947.0 2100 9945.0 2148Q9941.0 2250 9938.5 2372.0Q9936.0 2494 9936.0 2623.0Q9936.0 2752 9938.5 2874.0Q9941.0 2996 9945.0 3098Q9947.0 3147 9978.5 3173.5Q10010.0 3200 10067.0 3200Z"/><path d="M10654.0 3424V1824H11088.0L11208.0 2334L11318.0 3160H11370.0L11314.0 2510L11290.0 1824H11580.0V3424H11124.0L11004.0 2900L10922.0 2086H10866.0L10918.0 2810L10944.0 3424Z"/><path d="M6543.0 5268Q6317.0 5268 6221.5 5175.0Q6126.0 5082 6121.0 4866Q6120.0 4783 6119.0 4674.0Q6118.0 4565 6118.0 4447.5Q6118.0 4330 6119.0 4220.5Q6120.0 4111 6121.0 4026Q6124.0 3843 6223.5 3735.5Q6323.0 3628 6543.0 3628Q6759.0 3628 6856.0 3720.5Q6953.0 3813 6959.0 4028Q6960.0 4061 6960.0 4099.5Q6960.0 4138 6959.0 4176.5Q6958.0 4215 6957.0 4248H6657.0Q6658.0 4211 6659.0 4160.5Q6660.0 4110 6660.0 4059.5Q6660.0 4009 6659.0 3972Q6658.0 3924 6627.5 3898.0Q6597.0 3872 6543.0 3872Q6486.0 3872 6454.5 3898.0Q6423.0 3924 6421.0 3972Q6417.0 4077 6415.5 4199.0Q6414.0 4321 6414.0 4448.0Q6414.0 4575 6415.5 4696.5Q6417.0 4818 6421.0 4922Q6423.0 4971 6454.5 4997.5Q6486.0 5024 6543.0 5024Q6602.0 5024 6634.0 4997.5Q6666.0 4971 6667.0 4922Q6668.0 4886 6668.5 4835.5Q6669.0 4785 6668.5 4734.5Q6668.0 4684 6667.0 4648H6967.0Q6969.0 4696 6969.0 4757.0Q6969.0 4818 6967.0 4866Q6961.0 5082 6862.5 5175.0Q6764.0 5268 6543.0 5268Z"/><path d="M7118.0 5248V3648H7418.0V4302H7628.0V3648H7928.0V5248H7628.0V4566H7418.0V5248Z"/><path d="M8098.0 5248V3648H8398.0V5248Z"/><path d="M8568.0 5248V3648H8868.0V4984H9262.0V5248Z"/><path d="M9382.0 5248V3648H9788.0Q10013.0 3648 10113.5 3743.5Q10214.0 3839 10218.0 4058Q10221.0 4197 10222.0 4322.0Q10223.0 4447 10222.0 4572.0Q10221.0 4697 10218.0 4836Q10214.0 5056 10113.5 5152.0Q10013.0 5248 9788.0 5248ZM9682.0 4984H9788.0Q9851.0 4984 9884.0 4955.0Q9917.0 4926 9918.0 4872Q9921.0 4765 9922.5 4659.0Q9924.0 4553 9924.0 4447.0Q9924.0 4341 9922.5 4234.5Q9921.0 4128 9918.0 4022Q9917.0 3969 9884.0 3940.5Q9851.0 3912 9788.0 3912H9682.0Z"/><path d="M10382.0 5248V3648H10768.0Q10992.0 3648 11091.5 3738.5Q11191.0 3829 11198.0 4038Q11200.0 4094 11200.5 4136.0Q11201.0 4178 11200.5 4220.0Q11200.0 4262 11198.0 4318Q11194.0 4448 11154.5 4531.0Q11115.0 4614 11032.0 4658L11220.0 5248H10902.0L10750.0 4708H10682.0V5248ZM10682.0 4444H10768.0Q10831.0 4444 10863.0 4415.0Q10895.0 4386 10898.0 4334Q10901.0 4285 10902.0 4231.5Q10903.0 4178 10902.0 4124.5Q10901.0 4071 10898.0 4022Q10895.0 3969 10863.0 3940.5Q10831.0 3912 10768.0 3912H10682.0Z"/><path d="M11346.0 5248V3648H12038.0V3912H11646.0V4302H12018.0V4566H11646.0V4984H12038.0V5248Z"/><path d="M12172.0 5248V3648H12606.0L12726.0 4158L12836.0 4984H12888.0L12832.0 4334L12808.0 3648H13098.0V5248H12642.0L12522.0 4724L12440.0 3910H12384.0L12436.0 4634L12462.0 5248Z"/></g></svg>